<svg width="52" height="42" viewBox="0 0 52 42" fill="none" xmlns="http://www.w3.org/2000/svg">
<path d="M37.5 29.1429V30.3571C37.5 32.3691 35.8211 34 33.75 34H3.75C1.67891 34 0 32.3691 0 30.3571V10.9286C0 8.91665 1.67891 7.28571 3.75 7.28571H5V23.0714C5 26.4192 7.80375 29.1429 11.25 29.1429H37.5ZM45 23.0714V3.64286C45 1.63094 43.3211 0 41.25 0H11.25C9.17891 0 7.5 1.63094 7.5 3.64286V23.0714C7.5 25.0833 9.17891 26.7143 11.25 26.7143H41.25C43.3211 26.7143 45 25.0833 45 23.0714ZM20 7.28571C20 9.29763 18.3211 10.9286 16.25 10.9286C14.1789 10.9286 12.5 9.29763 12.5 7.28571C12.5 5.27379 14.1789 3.64286 16.25 3.64286C18.3211 3.64286 20 5.27379 20 7.28571ZM12.5 18.2143L16.8371 14.0011C17.2032 13.6455 17.7968 13.6455 18.163 14.0011L21.25 17L31.8371 6.71538C32.2032 6.35975 32.7968 6.35975 33.163 6.71538L40 13.3571V21.8571H12.5V18.2143Z" fill="#CCCCCC"/>
<path d="M51 28.5C51 33.7467 46.7467 38 41.5 38C36.2533 38 32 33.7467 32 28.5C32 23.2533 36.2533 19 41.5 19C46.7467 19 51 23.2533 51 28.5Z" fill="#D9D9D9" stroke="white" stroke-width="2"/>
<path d="M36.272 27.864H40.808V22.92H42.728V27.864H47.264V29.76H42.728V34.728H40.808V29.76H36.272V27.864Z" fill="black"/>
</svg>
