<svg width="51" height="52" viewBox="0 0 51 52" fill="none" xmlns="http://www.w3.org/2000/svg">
<g clip-path="url(#clip0_26_93)">
<path d="M50.7873 26.4865C50.7873 24.356 50.6145 22.8014 50.2404 21.1892H25.9131V30.8048H40.1926C39.9049 33.1945 38.3502 36.7932 34.8954 39.2114L34.847 39.5333L42.5388 45.4921L43.0717 45.5453C47.9658 41.0252 50.7873 34.3748 50.7873 26.4865Z" fill="#4285F4"/>
<path d="M25.9135 51.8213C32.9093 51.8213 38.7824 49.518 43.0722 45.5451L34.8959 39.2113C32.7079 40.7371 29.7713 41.8023 25.9135 41.8023C19.0617 41.8023 13.2462 37.2825 11.1731 31.0352L10.8693 31.061L2.8712 37.2507L2.7666 37.5415C7.02743 46.0056 15.7795 51.8213 25.9135 51.8213Z" fill="#34A853"/>
<path d="M11.1727 31.0353C10.6257 29.4231 10.3092 27.6956 10.3092 25.9107C10.3092 24.1257 10.6257 22.3983 11.1439 20.7861L11.1294 20.4428L3.03114 14.1536L2.76618 14.2796C1.01009 17.792 0.00244141 21.7362 0.00244141 25.9107C0.00244141 30.0852 1.01009 34.0293 2.76618 37.5417L11.1727 31.0353Z" fill="#FBBC05"/>
<path d="M25.9135 10.0187C30.7789 10.0187 34.0609 12.1204 35.9323 13.8767L43.2448 6.73678C38.7538 2.56229 32.9093 0 25.9135 0C15.7795 0 7.02743 5.81546 2.7666 14.2796L11.1444 20.7861C13.2462 14.5388 19.0617 10.0187 25.9135 10.0187Z" fill="#EB4335"/>
</g>
<defs>
<clipPath id="clip0_26_93">
<rect width="50.8144" height="52" fill="white"/>
</clipPath>
</defs>
</svg>
