<svg width="40" height="41" viewBox="0 0 40 41" fill="none" xmlns="http://www.w3.org/2000/svg">
<g clip-path="url(#clip0_100_643)">
<path d="M18.4998 21.0709C14.6165 13.5543 17.6665 6.9376 19.3831 4.2876C10.4498 4.60426 3.2998 11.9209 3.2998 20.9376C3.2998 21.1709 3.33314 21.4043 3.33314 21.6376C4.36647 21.1876 5.48314 20.9376 6.66647 20.9376C9.43314 20.9376 11.9665 22.3209 13.4998 24.5209C16.2831 25.3209 18.3331 27.8876 18.3331 30.9376C18.3331 33.4709 16.8831 35.6543 14.7998 36.7876C16.4331 37.3209 18.1831 37.6209 19.9831 37.6209C25.8165 37.6209 30.9498 34.6209 33.9331 30.0876C29.9998 30.4709 22.2998 28.4709 18.4998 21.0709Z" fill="white"/>
<path d="M11.6665 27.6043H11.3665C10.6665 25.671 8.83317 24.271 6.6665 24.271C3.89984 24.271 1.6665 26.5043 1.6665 29.271C1.6665 32.0377 3.89984 34.271 6.6665 34.271C7.69984 34.271 10.8165 34.271 11.6665 34.271C13.4998 34.271 14.9998 32.771 14.9998 30.9377C14.9998 29.1043 13.4998 27.6043 11.6665 27.6043Z" fill="white"/>
</g>
<defs>
<clipPath id="clip0_100_643">
<rect width="40" height="40" fill="white" transform="translate(0 0.9375)"/>
</clipPath>
</defs>
</svg>
