<svg width="40" height="41" viewBox="0 0 40 41" fill="none" xmlns="http://www.w3.org/2000/svg">
<g clip-path="url(#clip0_71_279)">
<path d="M31.8999 22.0042C31.9665 21.5042 31.9999 20.9875 31.9999 20.4375C31.9999 19.9042 31.9665 19.3708 31.8832 18.8708L35.2665 16.2375C35.5665 16.0042 35.6499 15.5542 35.4665 15.2208L32.2665 9.6875C32.0665 9.32083 31.6499 9.20417 31.2832 9.32083L27.2999 10.9208C26.4665 10.2875 25.5832 9.75417 24.5999 9.35417L23.9999 5.12083C23.9332 4.72083 23.5999 4.4375 23.1999 4.4375H16.7999C16.3999 4.4375 16.0832 4.72083 16.0165 5.12083L15.4165 9.35417C14.4332 9.75417 13.5332 10.3042 12.7165 10.9208L8.73319 9.32083C8.36652 9.1875 7.94986 9.32083 7.74986 9.6875L4.56652 15.2208C4.36652 15.5708 4.43319 16.0042 4.76652 16.2375L8.14986 18.8708C8.06652 19.3708 7.99986 19.9208 7.99986 20.4375C7.99986 20.9542 8.03319 21.5042 8.11652 22.0042L4.73319 24.6375C4.43319 24.8708 4.34986 25.3208 4.53319 25.6542L7.73319 31.1875C7.93319 31.5542 8.34986 31.6708 8.71652 31.5542L12.6999 29.9542C13.5332 30.5875 14.4165 31.1208 15.3999 31.5208L15.9999 35.7542C16.0832 36.1542 16.3999 36.4375 16.7999 36.4375H23.1999C23.5999 36.4375 23.9332 36.1542 23.9832 35.7542L24.5832 31.5208C25.5665 31.1208 26.4665 30.5875 27.2832 29.9542L31.2665 31.5542C31.6332 31.6875 32.0499 31.5542 32.2499 31.1875L35.4499 25.6542C35.6499 25.2875 35.5665 24.8708 35.2499 24.6375L31.8999 22.0042ZM19.9999 26.4375C16.6999 26.4375 13.9999 23.7375 13.9999 20.4375C13.9999 17.1375 16.6999 14.4375 19.9999 14.4375C23.2999 14.4375 25.9999 17.1375 25.9999 20.4375C25.9999 23.7375 23.2999 26.4375 19.9999 26.4375Z" fill="white"/>
</g>
<defs>
<clipPath id="clip0_71_279">
<rect width="40" height="40" fill="white" transform="translate(0 0.4375)"/>
</clipPath>
</defs>
</svg>
