<svg width="13" height="26" viewBox="0 0 13 26" fill="none" xmlns="http://www.w3.org/2000/svg">
<path d="M11.25 5.99984V19.4165C11.25 21.9948 9.16163 24.0832 6.58329 24.0832C4.00496 24.0832 1.91663 21.9948 1.91663 19.4165V4.83317C1.91663 3.22317 3.22329 1.9165 4.83329 1.9165C6.44329 1.9165 7.74996 3.22317 7.74996 4.83317V17.0832C7.74996 17.7248 7.22496 18.2498 6.58329 18.2498C5.94163 18.2498 5.41663 17.7248 5.41663 17.0832V5.99984H3.66663V17.0832C3.66663 18.6932 4.97329 19.9998 6.58329 19.9998C8.19329 19.9998 9.49996 18.6932 9.49996 17.0832V4.83317C9.49996 2.25484 7.41163 0.166504 4.83329 0.166504C2.25496 0.166504 0.166626 2.25484 0.166626 4.83317V19.4165C0.166626 22.9632 3.03663 25.8332 6.58329 25.8332C10.13 25.8332 13 22.9632 13 19.4165V5.99984H11.25Z" fill="#191C1D"/>
</svg>
