<svg width="8" height="28" viewBox="0 0 8 28" fill="none" xmlns="http://www.w3.org/2000/svg">
<path d="M3.99999 7.33317C5.83332 7.33317 7.33332 5.83317 7.33332 3.99984C7.33332 2.1665 5.83332 0.666504 3.99999 0.666504C2.16666 0.666504 0.666656 2.1665 0.666656 3.99984C0.666656 5.83317 2.16666 7.33317 3.99999 7.33317ZM3.99999 10.6665C2.16666 10.6665 0.666656 12.1665 0.666656 13.9998C0.666656 15.8332 2.16666 17.3332 3.99999 17.3332C5.83332 17.3332 7.33332 15.8332 7.33332 13.9998C7.33332 12.1665 5.83332 10.6665 3.99999 10.6665ZM3.99999 20.6665C2.16666 20.6665 0.666656 22.1665 0.666656 23.9998C0.666656 25.8332 2.16666 27.3332 3.99999 27.3332C5.83332 27.3332 7.33332 25.8332 7.33332 23.9998C7.33332 22.1665 5.83332 20.6665 3.99999 20.6665Z" fill="#191C1D"/>
</svg>
